<mxfile host="Electron" modified="2024-04-11T06:57:39.179Z" agent="Mozilla/5.0 (Windows NT 10.0; Win64; x64) AppleWebKit/537.36 (KHTML, like Gecko) draw.io/24.1.0 Chrome/120.0.6099.109 Electron/28.1.0 Safari/537.36" etag="roTE3TpJfD6Z7QiMkVIp" version="24.1.0" type="device">
  <diagram name="Страница — 1" id="EEKx7xyk5lXNfW-hZUce">
    <mxGraphModel dx="1098" dy="828" grid="1" gridSize="10" guides="1" tooltips="1" connect="1" arrows="1" fold="1" page="1" pageScale="1" pageWidth="827" pageHeight="1169" math="0" shadow="0">
      <root>
        <mxCell id="0" />
        <mxCell id="1" parent="0" />
        <mxCell id="_yhliF99y8tG8taDh_Pl-1" value="Product" style="swimlane;whiteSpace=wrap;html=1;" vertex="1" parent="1">
          <mxGeometry x="30" y="80" width="150" height="100" as="geometry">
            <mxRectangle x="40" y="90" width="80" height="30" as="alternateBounds" />
          </mxGeometry>
        </mxCell>
        <mxCell id="_yhliF99y8tG8taDh_Pl-56" value="" style="group" vertex="1" connectable="0" parent="_yhliF99y8tG8taDh_Pl-1">
          <mxGeometry x="10" y="32" width="90" height="60" as="geometry" />
        </mxCell>
        <mxCell id="_yhliF99y8tG8taDh_Pl-2" value="&lt;font style=&quot;font-size: 15px;&quot;&gt;&lt;b&gt;ID&lt;/b&gt;&lt;/font&gt;" style="text;html=1;align=center;verticalAlign=middle;resizable=0;points=[];autosize=1;strokeColor=none;fillColor=none;" vertex="1" parent="_yhliF99y8tG8taDh_Pl-56">
          <mxGeometry x="30" width="40" height="30" as="geometry" />
        </mxCell>
        <mxCell id="_yhliF99y8tG8taDh_Pl-9" value="" style="sketch=0;pointerEvents=1;shadow=0;dashed=0;html=1;strokeColor=none;fillColor=#005F4B;labelPosition=center;verticalLabelPosition=bottom;verticalAlign=top;align=center;outlineConnect=0;shape=mxgraph.veeam2.key;" vertex="1" parent="_yhliF99y8tG8taDh_Pl-56">
          <mxGeometry width="28.000000000000004" height="28.000000000000004" as="geometry" />
        </mxCell>
        <mxCell id="_yhliF99y8tG8taDh_Pl-42" value="&lt;font style=&quot;font-size: 15px;&quot;&gt;Name&lt;/font&gt;" style="text;html=1;align=center;verticalAlign=middle;resizable=0;points=[];autosize=1;strokeColor=none;fillColor=none;" vertex="1" parent="_yhliF99y8tG8taDh_Pl-56">
          <mxGeometry x="30" y="30" width="60" height="30" as="geometry" />
        </mxCell>
        <mxCell id="_yhliF99y8tG8taDh_Pl-4" value="" style="points=[[0,0.5,0],[0.24,0,0],[0.5,0.28,0],[0.995,0.475,0],[0.5,0.72,0],[0.24,1,0]];verticalLabelPosition=bottom;sketch=0;html=1;verticalAlign=top;aspect=fixed;align=center;pointerEvents=1;shape=mxgraph.cisco19.key;fillColor=#005073;strokeColor=none;" vertex="1" parent="1">
          <mxGeometry x="NaN" y="NaN" width="10" height="NaN" as="geometry" />
        </mxCell>
        <mxCell id="_yhliF99y8tG8taDh_Pl-13" value="OrderProducts" style="swimlane;whiteSpace=wrap;html=1;" vertex="1" parent="1">
          <mxGeometry x="330" y="80" width="150" height="150" as="geometry">
            <mxRectangle x="40" y="90" width="80" height="30" as="alternateBounds" />
          </mxGeometry>
        </mxCell>
        <mxCell id="_yhliF99y8tG8taDh_Pl-30" value="" style="group" vertex="1" connectable="0" parent="_yhliF99y8tG8taDh_Pl-13">
          <mxGeometry x="10" y="32" width="123" height="98" as="geometry" />
        </mxCell>
        <mxCell id="_yhliF99y8tG8taDh_Pl-14" value="&lt;font style=&quot;font-size: 15px;&quot;&gt;&lt;b&gt;OrderId&lt;/b&gt;&lt;/font&gt;" style="text;html=1;align=center;verticalAlign=middle;resizable=0;points=[];autosize=1;strokeColor=none;fillColor=none;" vertex="1" parent="_yhliF99y8tG8taDh_Pl-30">
          <mxGeometry x="38" width="80" height="30" as="geometry" />
        </mxCell>
        <mxCell id="_yhliF99y8tG8taDh_Pl-15" value="" style="sketch=0;pointerEvents=1;shadow=0;dashed=0;html=1;strokeColor=none;fillColor=#005F4B;labelPosition=center;verticalLabelPosition=bottom;verticalAlign=top;align=center;outlineConnect=0;shape=mxgraph.veeam2.key;" vertex="1" parent="_yhliF99y8tG8taDh_Pl-30">
          <mxGeometry width="28.000000000000004" height="28.000000000000004" as="geometry" />
        </mxCell>
        <mxCell id="_yhliF99y8tG8taDh_Pl-25" value="&lt;font style=&quot;font-size: 15px;&quot;&gt;Quantity&lt;/font&gt;" style="text;html=1;align=center;verticalAlign=middle;resizable=0;points=[];autosize=1;strokeColor=none;fillColor=none;" vertex="1" parent="_yhliF99y8tG8taDh_Pl-30">
          <mxGeometry x="38" y="68" width="80" height="30" as="geometry" />
        </mxCell>
        <mxCell id="_yhliF99y8tG8taDh_Pl-23" value="" style="sketch=0;pointerEvents=1;shadow=0;dashed=0;html=1;strokeColor=none;fillColor=#005F4B;labelPosition=center;verticalLabelPosition=bottom;verticalAlign=top;align=center;outlineConnect=0;shape=mxgraph.veeam2.key;" vertex="1" parent="_yhliF99y8tG8taDh_Pl-30">
          <mxGeometry y="34" width="28.000000000000004" height="28.000000000000004" as="geometry" />
        </mxCell>
        <mxCell id="_yhliF99y8tG8taDh_Pl-22" value="&lt;font style=&quot;font-size: 15px;&quot;&gt;&lt;b&gt;ProductId&lt;/b&gt;&lt;/font&gt;" style="text;html=1;align=center;verticalAlign=middle;resizable=0;points=[];autosize=1;strokeColor=none;fillColor=none;" vertex="1" parent="_yhliF99y8tG8taDh_Pl-30">
          <mxGeometry x="38" y="34" width="90" height="30" as="geometry" />
        </mxCell>
        <mxCell id="_yhliF99y8tG8taDh_Pl-18" value="Orders" style="swimlane;whiteSpace=wrap;html=1;startSize=23;" vertex="1" parent="1">
          <mxGeometry x="570" y="80" width="150" height="70" as="geometry">
            <mxRectangle x="40" y="90" width="80" height="30" as="alternateBounds" />
          </mxGeometry>
        </mxCell>
        <mxCell id="_yhliF99y8tG8taDh_Pl-57" value="" style="group" vertex="1" connectable="0" parent="_yhliF99y8tG8taDh_Pl-18">
          <mxGeometry x="10" y="32" width="128" height="30" as="geometry" />
        </mxCell>
        <mxCell id="_yhliF99y8tG8taDh_Pl-19" value="&lt;font style=&quot;font-size: 15px;&quot;&gt;&lt;b&gt;Product ID&lt;/b&gt;&lt;/font&gt;" style="text;html=1;align=center;verticalAlign=middle;resizable=0;points=[];autosize=1;strokeColor=none;fillColor=none;" vertex="1" parent="_yhliF99y8tG8taDh_Pl-57">
          <mxGeometry x="28" width="100" height="30" as="geometry" />
        </mxCell>
        <mxCell id="_yhliF99y8tG8taDh_Pl-20" value="" style="sketch=0;pointerEvents=1;shadow=0;dashed=0;html=1;strokeColor=none;fillColor=#005F4B;labelPosition=center;verticalLabelPosition=bottom;verticalAlign=top;align=center;outlineConnect=0;shape=mxgraph.veeam2.key;" vertex="1" parent="_yhliF99y8tG8taDh_Pl-57">
          <mxGeometry width="28.000000000000004" height="28.000000000000004" as="geometry" />
        </mxCell>
        <mxCell id="_yhliF99y8tG8taDh_Pl-28" value="" style="fontSize=12;html=1;endArrow=ERmany;rounded=0;" edge="1" parent="1">
          <mxGeometry width="100" height="100" relative="1" as="geometry">
            <mxPoint x="570" y="130" as="sourcePoint" />
            <mxPoint x="480" y="130" as="targetPoint" />
          </mxGeometry>
        </mxCell>
        <mxCell id="_yhliF99y8tG8taDh_Pl-29" value="" style="edgeStyle=entityRelationEdgeStyle;fontSize=12;html=1;endArrow=ERmany;rounded=0;" edge="1" parent="1">
          <mxGeometry width="100" height="100" relative="1" as="geometry">
            <mxPoint x="180" y="130" as="sourcePoint" />
            <mxPoint x="330" y="130" as="targetPoint" />
          </mxGeometry>
        </mxCell>
        <mxCell id="_yhliF99y8tG8taDh_Pl-31" value="RacksProduct" style="swimlane;whiteSpace=wrap;html=1;" vertex="1" parent="1">
          <mxGeometry x="30" y="320" width="150" height="150" as="geometry">
            <mxRectangle x="40" y="90" width="80" height="30" as="alternateBounds" />
          </mxGeometry>
        </mxCell>
        <mxCell id="_yhliF99y8tG8taDh_Pl-32" value="" style="group" vertex="1" connectable="0" parent="_yhliF99y8tG8taDh_Pl-31">
          <mxGeometry x="10" y="32" width="123" height="98" as="geometry" />
        </mxCell>
        <mxCell id="_yhliF99y8tG8taDh_Pl-33" value="&lt;font style=&quot;font-size: 15px;&quot;&gt;&lt;b&gt;RackId&lt;/b&gt;&lt;/font&gt;" style="text;html=1;align=center;verticalAlign=middle;resizable=0;points=[];autosize=1;strokeColor=none;fillColor=none;" vertex="1" parent="_yhliF99y8tG8taDh_Pl-32">
          <mxGeometry x="33" width="70" height="30" as="geometry" />
        </mxCell>
        <mxCell id="_yhliF99y8tG8taDh_Pl-34" value="" style="sketch=0;pointerEvents=1;shadow=0;dashed=0;html=1;strokeColor=none;fillColor=#005F4B;labelPosition=center;verticalLabelPosition=bottom;verticalAlign=top;align=center;outlineConnect=0;shape=mxgraph.veeam2.key;" vertex="1" parent="_yhliF99y8tG8taDh_Pl-32">
          <mxGeometry width="28.000000000000004" height="28.000000000000004" as="geometry" />
        </mxCell>
        <mxCell id="_yhliF99y8tG8taDh_Pl-35" value="&lt;font style=&quot;font-size: 15px;&quot;&gt;Status&lt;/font&gt;" style="text;html=1;align=center;verticalAlign=middle;resizable=0;points=[];autosize=1;strokeColor=none;fillColor=none;" vertex="1" parent="_yhliF99y8tG8taDh_Pl-32">
          <mxGeometry x="33" y="68" width="70" height="30" as="geometry" />
        </mxCell>
        <mxCell id="_yhliF99y8tG8taDh_Pl-36" value="" style="sketch=0;pointerEvents=1;shadow=0;dashed=0;html=1;strokeColor=none;fillColor=#005F4B;labelPosition=center;verticalLabelPosition=bottom;verticalAlign=top;align=center;outlineConnect=0;shape=mxgraph.veeam2.key;" vertex="1" parent="_yhliF99y8tG8taDh_Pl-32">
          <mxGeometry y="38" width="28.000000000000004" height="28.000000000000004" as="geometry" />
        </mxCell>
        <mxCell id="_yhliF99y8tG8taDh_Pl-37" value="&lt;font style=&quot;font-size: 15px;&quot;&gt;&lt;b&gt;ProductId&lt;/b&gt;&lt;/font&gt;" style="text;html=1;align=center;verticalAlign=middle;resizable=0;points=[];autosize=1;strokeColor=none;fillColor=none;" vertex="1" parent="_yhliF99y8tG8taDh_Pl-32">
          <mxGeometry x="33" y="38" width="90" height="30" as="geometry" />
        </mxCell>
        <mxCell id="_yhliF99y8tG8taDh_Pl-38" value="Racks" style="swimlane;whiteSpace=wrap;html=1;" vertex="1" parent="1">
          <mxGeometry x="330" y="320" width="150" height="100" as="geometry">
            <mxRectangle x="40" y="90" width="80" height="30" as="alternateBounds" />
          </mxGeometry>
        </mxCell>
        <mxCell id="_yhliF99y8tG8taDh_Pl-58" value="" style="group" vertex="1" connectable="0" parent="_yhliF99y8tG8taDh_Pl-38">
          <mxGeometry x="7" y="33" width="107" height="60" as="geometry" />
        </mxCell>
        <mxCell id="_yhliF99y8tG8taDh_Pl-39" value="&lt;font style=&quot;font-size: 15px;&quot;&gt;&lt;b&gt;&amp;nbsp;ID&lt;/b&gt;&lt;/font&gt;" style="text;html=1;align=center;verticalAlign=middle;resizable=0;points=[];autosize=1;strokeColor=none;fillColor=none;" vertex="1" parent="_yhliF99y8tG8taDh_Pl-58">
          <mxGeometry x="41" width="40" height="30" as="geometry" />
        </mxCell>
        <mxCell id="_yhliF99y8tG8taDh_Pl-43" value="&lt;font style=&quot;font-size: 15px;&quot;&gt;Name&lt;/font&gt;" style="text;html=1;align=center;verticalAlign=middle;resizable=0;points=[];autosize=1;strokeColor=none;fillColor=none;" vertex="1" parent="_yhliF99y8tG8taDh_Pl-58">
          <mxGeometry x="47" y="30" width="60" height="30" as="geometry" />
        </mxCell>
        <mxCell id="_yhliF99y8tG8taDh_Pl-44" value="" style="sketch=0;pointerEvents=1;shadow=0;dashed=0;html=1;strokeColor=none;fillColor=#005F4B;labelPosition=center;verticalLabelPosition=bottom;verticalAlign=top;align=center;outlineConnect=0;shape=mxgraph.veeam2.key;" vertex="1" parent="_yhliF99y8tG8taDh_Pl-58">
          <mxGeometry y="1" width="28.000000000000004" height="28.000000000000004" as="geometry" />
        </mxCell>
        <mxCell id="_yhliF99y8tG8taDh_Pl-41" value="" style="edgeStyle=entityRelationEdgeStyle;fontSize=12;html=1;endArrow=ERmany;rounded=0;exitX=0;exitY=0.75;exitDx=0;exitDy=0;entryX=1;entryY=0.5;entryDx=0;entryDy=0;" edge="1" parent="1" source="_yhliF99y8tG8taDh_Pl-38" target="_yhliF99y8tG8taDh_Pl-31">
          <mxGeometry width="100" height="100" relative="1" as="geometry">
            <mxPoint x="100" y="710" as="sourcePoint" />
            <mxPoint x="180" y="440" as="targetPoint" />
            <Array as="points">
              <mxPoint x="220" y="460" />
              <mxPoint x="200" y="400" />
            </Array>
          </mxGeometry>
        </mxCell>
        <mxCell id="_yhliF99y8tG8taDh_Pl-55" value="" style="fontSize=12;html=1;endArrow=ERmany;rounded=0;entryX=0.5;entryY=0;entryDx=0;entryDy=0;exitX=0.5;exitY=1;exitDx=0;exitDy=0;" edge="1" parent="1" source="_yhliF99y8tG8taDh_Pl-1" target="_yhliF99y8tG8taDh_Pl-31">
          <mxGeometry width="100" height="100" relative="1" as="geometry">
            <mxPoint x="100" y="180" as="sourcePoint" />
            <mxPoint x="95" y="320" as="targetPoint" />
          </mxGeometry>
        </mxCell>
      </root>
    </mxGraphModel>
  </diagram>
</mxfile>
